# File created by Blade
# Date/Time:  Mon Nov 18 18:33:23 2013
# Frame Rate: 100.000 fps
#------------------------------------------------------
:FULLY-SPECIFIED
:DEGREES
94
root 54.552436 -1.424780 50.846067 -2.847723 4.641685 -123.812830
Spine 10.570970 -1.102484 -1.182955
Spine1 2.681705 1.286421 -2.875477
Spine2 0.453796 -2.561237 -2.685906
NeckDummy 0.004625 -0.019700 -0.011705 -1.372240 2.207152 -0.848649
Neck 15.673013 -0.999579 28.275652
Head -0.337885 0.320173 0.251501 -35.043931 -4.844605 -0.852830
LeftShoulderDummy -0.065738 -0.014138 0.022786 -1.350657 2.087015 -0.660748
LeftShoulder 8.060015 -4.470342 14.355244
LeftArm 14.874592 46.796215 22.481183
LeftForeArm 89.395564
LeftForeArmRoll -34.154835
LeftHand -9.482738 5.027730 -3.446833
LeftHandThumb1 16.551916 12.453877
LeftHandIndex1 15.095124 42.996054
LeftHandPinky1 14.425009 47.890362
RightShoulderDummy -0.045744 0.015942 0.086013 -1.398667 -2.208225 0.849862
RightShoulder 6.177953 4.698679 18.681627
RightArm -48.514328 65.721332 -9.395939
RightForeArm 113.175040
RightForeArmRoll 5.661385
RightHand -17.866282 -16.232473 11.808944
RightHandThumb1 -0.110224 12.696273
RightHandIndex1 13.105857 59.996725
RightHandPinky1 18.244355 68.449788
LeftUpLeg 8.708936 18.437514 -24.416155
LeftLeg 39.688271
LeftFoot 0.387023 -1.042294 -0.445325 -13.188819 8.736583 -5.808730
LeftToeBase -3.305431
RightUpLeg 18.148449 14.934883 -19.000325
RightLeg 51.637041
RightFoot -0.358335 0.396407 0.360217 -1.903395 1.254219 -28.299621
RightToeBase -1.295137
95
root 54.541349 -1.484638 50.845298 -2.846177 4.635266 -123.757333
Spine 10.642958 -1.170839 -1.165427
Spine1 2.698873 1.257846 -2.838695
Spine2 0.408924 -2.502731 -2.759435
NeckDummy 0.005116 -0.021634 -0.010522 -1.389769 2.255039 -0.840884
Neck 15.833747 -0.849871 28.164702
Head -0.329403 0.322167 0.253954 -35.153284 -4.732693 -0.806992
LeftShoulderDummy -0.064873 -0.015694 0.023785 -1.367677 2.134934 -0.652179
LeftShoulder 8.074918 -4.543732 14.329938
LeftArm 15.083306 46.964549 22.681899
LeftForeArm 89.292989
LeftForeArmRoll -34.311409
LeftHand -9.502243 5.063198 -3.428888
LeftHandThumb1 16.541068 12.431921
LeftHandIndex1 15.076758 42.911331
LeftHandPinky1 14.432603 47.814243
RightShoulderDummy -0.045116 0.014040 0.089022 -1.415537 -2.255709 0.840181
RightShoulder 6.323311 4.793483 18.703666
RightArm -47.748840 66.008867 -8.730740
RightForeArm 113.093179
RightForeArmRoll 5.748164
RightHand -17.883376 -16.539328 11.787300
RightHandThumb1 -0.121688 12.985940
RightHandIndex1 12.977996 60.332996
RightHandPinky1 18.349874 68.590650
LeftUpLeg 8.686107 18.352110 -24.161096
LeftLeg 39.008722
LeftFoot 0.419155 -0.984678 -0.484821 -13.478848 8.480047 -4.957140
LeftToeBase -2.315660
RightUpLeg 18.016284 14.989770 -19.238290
RightLeg 52.141582
RightFoot -0.352260 0.400858 0.358741 -1.844629 1.389363 -28.505646
RightToeBase -1.262265
96
root 54.526850 -1.543596 50.848571 -2.833372 4.624050 -123.678553
Spine 10.671633 -1.196681 -1.187189
Spine1 2.707401 1.235134 -2.872299
Spine2 0.433568 -2.552561 -2.738383
NeckDummy 0.005340 -0.019581 -0.011395 -1.395017 2.244640 -0.856354
Neck 15.903111 -0.644099 28.103281
Head -0.322452 0.324009 0.258130 -35.256118 -4.659752 -0.755422
LeftShoulderDummy -0.064735 -0.013341 0.023590 -1.372272 2.124776 -0.668681
LeftShoulder 8.127275 -4.613632 14.374689
LeftArm 15.348841 46.965545 23.003629
LeftForeArm 89.210055
LeftForeArmRoll -34.352536
LeftHand -9.487656 5.058480 -3.516584
LeftHandThumb1 16.576318 12.512525
LeftHandIndex1 14.990833 42.794252
LeftHandPinky1 14.438598 47.796891
RightShoulderDummy -0.045484 0.016528 0.088394 -1.420095 -2.245777 0.854568
RightShoulder 6.325778 4.759296 18.579584
RightArm -47.345997 66.235381 -8.601959
RightForeArm 113.108289
RightForeArmRoll 5.895318
RightHand -17.954544 -16.371273 11.569901
RightHandThumb1 -0.633550 12.986354
RightHandIndex1 13.320030 60.025669
RightHandPinky1 18.474248 68.443794
LeftUpLeg 8.419016 18.213394 -23.978773
LeftLeg 38.791470
LeftFoot 0.483544 -0.952665 -0.471183 -14.822850 9.281533 -5.403106
LeftToeBase -2.739211
RightUpLeg 17.902340 15.045488 -19.478388
RightLeg 52.613052
RightFoot -0.351220 0.401893 0.358721 -1.816340 1.515943 -28.650496
RightToeBase -1.310848
97
root 54.518348 -1.598813 50.852637 -2.775955 4.550380 -123.589634
Spine 10.679145 -1.171125 -1.198368
Spine1 2.704242 1.235199 -2.882482
Spine2 0.471857 -2.616826 -2.664335
NeckDummy 0.004990 -0.017440 -0.012785 -1.426978 2.194663 -0.864453
Neck 15.981241 -0.456944 28.039962
Head -0.315085 0.328283 0.263427 -35.399135 -4.562947 -0.711062
LeftShoulderDummy -0.066344 -0.011144 0.024195 -1.404804 2.074801 -0.671942
LeftShoulder 8.057678 -4.629469 14.349127
LeftArm 15.402294 47.070788 23.158425
LeftForeArm 89.165044
LeftForeArmRoll -34.426146
LeftHand -9.488882 5.051179 -3.547407
LeftHandThumb1 16.526261 12.381933
LeftHandIndex1 14.940065 42.849481
LeftHandPinky1 14.033373 47.779073
RightShoulderDummy -0.046456 0.019063 0.087390 -1.451608 -2.195563 0.860511
RightShoulder 6.355912 4.720882 18.541347
RightArm -46.863247 66.440996 -8.370004
RightForeArm 113.096016
RightForeArmRoll 5.827567
RightHand -17.857939 -16.402759 11.666499
RightHandThumb1 -0.502467 12.823205
RightHandIndex1 13.022974 60.107001
RightHandPinky1 18.360981 68.574753
LeftUpLeg 8.112913 18.216301 -23.991614
LeftLeg 38.877851
LeftFoot 0.538350 -0.918904 -0.413346 -16.897773 9.819586 -5.976973
LeftToeBase -1.009145
RightUpLeg 17.808117 15.021811 -19.758134
RightLeg 53.072115
RightFoot -0.354672 0.403124 0.354991 -1.766289 1.663385 -28.768707
RightToeBase -1.372389
98
root 54.517459 -1.648776 50.847192 -2.730855 4.437733 -123.517085
Spine 10.688630 -1.185744 -1.177312
Spine1 2.725559 1.231071 -2.836003
Spine2 0.538233 -2.596125 -2.635352
NeckDummy 0.004801 -0.014691 -0.015063 -1.414064 2.172507 -0.854337
Neck 15.972287 -0.331785 27.946160
Head -0.309933 0.331226 0.267791 -35.506192 -4.518801 -0.666215
LeftShoulderDummy -0.066636 -0.008002 0.021822 -1.391913 2.052215 -0.659113
LeftShoulder 8.027478 -4.688757 14.320070
LeftArm 15.570267 47.074435 23.486046
LeftForeArm 89.089381
LeftForeArmRoll -34.532627
LeftHand -9.449451 4.931363 -3.664254
LeftHandThumb1 16.637962 12.497889
LeftHandIndex1 14.992342 42.915974
LeftHandPinky1 13.993843 47.908201
RightShoulderDummy -0.046597 0.021634 0.084108 -1.438717 -2.172769 0.848415
RightShoulder 6.388002 4.656945 18.537998
RightArm -46.127911 66.661535 -7.908037
RightForeArm 113.132565
RightForeArmRoll 5.894951
RightHand -17.945632 -16.081008 11.459779
RightHandThumb1 -0.810951 12.689460
RightHandIndex1 13.212694 58.804452
RightHandPinky1 18.449920 68.168964
LeftUpLeg 7.978029 18.371500 -24.143279
LeftLeg 39.163223
LeftFoot 0.534825 -0.912168 -0.391656 -17.151025 9.691364 -6.378324
LeftToeBase -1.541024
RightUpLeg 17.607699 14.854552 -20.023632
RightLeg 53.479749
RightFoot -0.355111 0.402352 0.348745 -1.619222 1.961491 -28.838557
RightToeBase -1.414141
99
root 54.524639 -1.691672 50.846947 -2.673179 4.331467 -123.386514
Spine 10.732802 -1.214147 -1.155951
Spine1 2.762955 1.224813 -2.795065
Spine2 0.509022 -2.512862 -2.720015
NeckDummy 0.005335 -0.015514 -0.014137 -1.364835 2.229621 -0.842457
Neck 16.030483 -0.296978 27.879210
Head -0.303869 0.341341 0.269927 -35.655778 -4.427708 -0.650917
LeftShoulderDummy -0.065648 -0.008701 0.019455 -1.342804 2.109909 -0.646725
LeftShoulder 8.030757 -4.726296 14.297519
LeftArm 15.741148 47.066420 23.887616
LeftForeArm 88.925391
LeftForeArmRoll -34.744318
LeftHand -9.411764 4.701268 -3.611717
LeftHandThumb1 16.393450 12.573735
LeftHandIndex1 15.080745 42.916920
LeftHandPinky1 14.047423 48.063337
RightShoulderDummy -0.046135 0.020501 0.084114 -1.389485 -2.228615 0.833862
RightShoulder 6.299399 4.687768 18.531123
RightArm -45.688451 66.921519 -7.785969
RightForeArm 113.129142
RightForeArmRoll 6.240363
RightHand -18.193663 -15.775552 11.448677
RightHandThumb1 -0.764117 12.706990
RightHandIndex1 13.433477 58.618914
RightHandPinky1 18.556940 68.473343
LeftUpLeg 7.797054 18.515621 -24.462474
LeftLeg 39.527897
LeftFoot 0.531363 -0.911487 -0.372975 -17.332405 9.606212 -6.398702
LeftToeBase -1.301734
RightUpLeg 17.404411 14.688650 -20.287412
RightLeg 53.854402
RightFoot -0.352979 0.409676 0.341251 -1.475839 2.304802 -28.983767
RightToeBase -1.338299
